<svg width="71" height="71" viewBox="0 0 71 71" fill="none" xmlns="http://www.w3.org/2000/svg">
<g filter="url(#filter0_d_3_189)">
<path d="M35.2143 43.7143C44.6031 43.7143 52.2143 36.1031 52.2143 26.7143C52.2143 17.3254 44.6031 9.71429 35.2143 9.71429C25.8255 9.71429 18.2143 17.3254 18.2143 26.7143C18.2143 36.1031 25.8255 43.7143 35.2143 43.7143Z" fill="#FE724C"/>
</g>
<path d="M42.6098 24.6683C42.5309 23.9881 42.2056 23.3569 41.6917 22.8872C41.1777 22.4175 40.5086 22.1397 39.8031 22.103V21.9031C39.8038 21.3342 39.6883 20.7708 39.4635 20.2452C39.2387 19.7196 38.9089 19.2422 38.493 18.8405C38.0781 18.4376 37.585 18.1181 37.0422 17.9004C36.4994 17.6826 35.9176 17.5708 35.3302 17.5714C34.1442 17.5718 33.0071 18.0284 32.1685 18.8408C31.3299 19.6532 30.8587 20.755 30.8582 21.9039V22.1061C30.1621 22.154 29.5052 22.4368 29.0018 22.9051C28.4985 23.3735 28.1806 23.9979 28.1031 24.6698L27.3571 31.2534C27.3608 32.1362 27.7259 32.9814 28.3724 33.6035C29.0188 34.2256 29.8939 34.5737 30.8051 34.5714H39.9094C40.8206 34.5737 41.6955 34.2256 42.3419 33.6035C42.9883 32.9814 43.3535 32.1362 43.3571 31.2534L42.6098 24.6683ZM32.1715 21.911C32.1714 21.5092 32.2529 21.1113 32.4116 20.74C32.5702 20.3687 32.8029 20.0314 33.0962 19.7472C33.3894 19.4631 33.7374 19.2376 34.1206 19.0838C34.5038 18.93 34.9146 18.8509 35.3294 18.8509C35.7442 18.8505 36.155 18.9295 36.5383 19.0833C36.9216 19.2371 37.2699 19.4626 37.5629 19.7471C37.8567 20.031 38.0896 20.3683 38.2486 20.7396C38.4075 21.1109 38.4891 21.509 38.4888 21.911V22.0966H32.1715V21.911ZM32.7946 26.4117C32.6903 26.4118 32.587 26.392 32.4907 26.3534C32.3944 26.3148 32.307 26.2582 32.2333 26.1868C32.1596 26.1154 32.1012 26.0307 32.0614 25.9374C32.0215 25.8441 32.0011 25.7441 32.0012 25.6431C32.0011 25.5421 32.0215 25.4422 32.0614 25.3489C32.1012 25.2556 32.1596 25.1707 32.2333 25.0993C32.307 25.0279 32.3944 24.9714 32.4907 24.9328C32.587 24.8942 32.6903 24.8744 32.7946 24.8745C32.8989 24.8743 33.0023 24.894 33.0988 24.9325C33.1953 24.971 33.2829 25.0276 33.3568 25.0989C33.4308 25.1703 33.4895 25.2551 33.5296 25.3485C33.5696 25.4418 33.5902 25.542 33.5903 25.6431C33.5902 25.7442 33.5696 25.8443 33.5296 25.9377C33.4895 26.031 33.4308 26.1158 33.3568 26.1872C33.2829 26.2586 33.1953 26.3151 33.0988 26.3536C33.0023 26.3921 32.8989 26.4119 32.7946 26.4117ZM37.9215 26.4117C37.8172 26.4119 37.7138 26.3921 37.6173 26.3536C37.5208 26.3151 37.4332 26.2586 37.3592 26.1872C37.2853 26.1158 37.2266 26.031 37.1865 25.9377C37.1465 25.8443 37.1259 25.7442 37.1258 25.6431C37.1259 25.542 37.1465 25.4418 37.1865 25.3485C37.2266 25.2551 37.2853 25.1703 37.3592 25.0989C37.4332 25.0276 37.5208 24.971 37.6173 24.9325C37.7138 24.894 37.8172 24.8743 37.9215 24.8745C38.0258 24.8744 38.1289 24.8942 38.2252 24.9328C38.3215 24.9714 38.4091 25.0279 38.4828 25.0993C38.5565 25.1707 38.6149 25.2556 38.6547 25.3489C38.6946 25.4422 38.715 25.5421 38.7149 25.6431C38.715 25.7441 38.6946 25.8441 38.6547 25.9374C38.6149 26.0307 38.5565 26.1154 38.4828 26.1868C38.4091 26.2582 38.3215 26.3148 38.2252 26.3534C38.1289 26.392 38.0258 26.4118 37.9215 26.4117Z" fill="white"/>
<defs>
<filter id="filter0_d_3_189" x="7.62939e-06" y="0" width="70.4286" height="70.4286" filterUnits="userSpaceOnUse" color-interpolation-filters="sRGB">
<feFlood flood-opacity="0" result="BackgroundImageFix"/>
<feColorMatrix in="SourceAlpha" type="matrix" values="0 0 0 0 0 0 0 0 0 0 0 0 0 0 0 0 0 0 127 0" result="hardAlpha"/>
<feOffset dy="8.5"/>
<feGaussianBlur stdDeviation="9.10714"/>
<feColorMatrix type="matrix" values="0 0 0 0 0.996078 0 0 0 0 0.447059 0 0 0 0 0.298039 0 0 0 0.4 0"/>
<feBlend mode="normal" in2="BackgroundImageFix" result="effect1_dropShadow_3_189"/>
<feBlend mode="normal" in="SourceGraphic" in2="effect1_dropShadow_3_189" result="shape"/>
</filter>
</defs>
</svg>
